# xmcd
# Track frame offsets:
# 150
# 15006
# 31740
# 48335
# 64043
# 79356
# 97516
# 111725
# 132065
# 144521
# 161397
# 176878
# 195319
# 211402
# 226061
# 243768
# 262588
#
# Disc length: 3699 seconds
# Revision: 0
# Processed by: cddbd v1.5.2PL0 Copyright (c) Steve Scherf et al.
# Submitted via: VisiTrax 2.11.2.271 - For more info visit www.synapsa.com
#
DISCID=c80e7111
DTITLE=Randy Travis - 25 Anniversary Celebration
DYEAR=2011
DGENRE=
TTITLE0=Randy Travis feat. Brad Paisley - Everything And All
TTITLE1=Randy Travis feat. Jamey Johnson - A Few Old Country Boys
TTITLE2=Randy Travis feat. Zac Brown Band - Forever And Even Amen
TTITLE3=Randy Travis feat. Kenny Chesney - He Walked On Water
TTITLE4=Randy Travis feat. Josh Turner - T.I.M.E
TTITLE5=Randy Travis feat. Kristin Chenoweth - Love Looks Good On You
TTITLE6=Randy Travis feat. Alan Jackson - Better Class Of Losers - She Got Th
TTITLE6=e Rhythm,I i Got The Blues(medley)
TTITLE7=Randy Travis feat. Don Henley - More Life
TTITLE8=Randy Travis feat. Tim McCraw - Can´t Hurt A Man
TTITLE9=Randy Travis feat. Shelby Lynne - Promises
TTITLE10=Randy Travis feat. Carrie Undewrwood - Is It Still Over?
TTITLE11=Randy Travis feat . Kris Kristofferson - Willie Nelson - Road To Surre
TTITLE11=nder
TTITLE12=Randy Travis feat. John Anderson - Diggin´Up Bones
TTITLE13=Randy Travis feat. Eamonn McCrystal - Someone You Never Knew
TTITLE14=Randy Travis feat. James Otto - Too Much
TTITLE15=Randy Travis feat. George Jones/Lorrie Morgan/Ray Price/Connie Smith/J
TTITLE15=oe Stampley/Gene Watson - Didn´t We Shine
TTITLE16=Randy Travis - Everything And All
EXTD=
EXTT0=
EXTT1=
EXTT2=
EXTT3=
EXTT4=
EXTT5=
EXTT6=
EXTT7=
EXTT8=
EXTT9=
EXTT10=
EXTT11=
EXTT12=
EXTT13=
EXTT14=
EXTT15=
EXTT16=
PLAYORDER=
